# xmcd CD database file generated by Grip 3.2.0
# 
# Track frame offsets:
#       150
#       12862
#       23587
#       33450
#       45862
#       54227
#       61787
#       71055
#       82275
#       91837
#       102937
#       115462
#       126265
#       136147
#       146797
#       155007
#       164900
#       176840
#       188532
#       198345
# 
# Disc length: 2811 seconds
# 
# Revision: 3
# Processed by: cddbd v1.5.2PL0 Copyright (c) Steve Scherf et al.
# Submitted via: Grip 3.2.0
# 
DISCID=150af914
DTITLE=Johnny Cash - 20 Super Hits
DYEAR=1984
DGENRE=Country
TTITLE0=Folsom Prison Blues
TTITLE1=Fools Hall of Fame
TTITLE2=Get Rhythm
TTITLE3=Give My Love to Rose
TTITLE4=Country Boy
TTITLE5=Come I Stranger
TTITLE6=Luther's Boogie
TTITLE7=Mean Eyed Cat
TTITLE8=New Mexico
TTITLE9=Oh Lonesome Me
TTITLE10=I Walk the Line
TTITLE11=Cry, Cry, Cry
TTITLE12=Ballad of the Teenage Queen
TTITLE13=I Just Thought You'd Like to Know
TTITLE14=Sugartime
TTITLE15=Born to Loose
TTITLE16=You're the Nearest Thing to Heaven
TTITLE17=So Doggone Lonesome
TTITLE18=Story of a Broken Heart
TTITLE19=Next in Line
EXTD=
EXTT0=
EXTT1=
EXTT2=
EXTT3=
EXTT4=
EXTT5=
EXTT6=
EXTT7=
EXTT8=
EXTT9=
EXTT10=
EXTT11=
EXTT12=
EXTT13=
EXTT14=
EXTT15=
EXTT16=
EXTT17=
EXTT18=
EXTT19=
PLAYORDER=
